<?xml version="1.0" standalone="no"?>
<!DOCTYPE svg PUBLIC "-//W3C//DTD SVG 1.1//EN" "http://www.w3.org/Graphics/SVG/1.1/DTD/svg11.dtd">
<svg width="350px" height="400px" version="1.1" xmlns="http://www.w3.org/2000/svg" xmlns:xlink="http://www.w3.org/1999/xlink" xml:space="preserve" style="fill-rule:evenodd;clip-rule:evenodd;stroke-linecap:round;stroke-linejoin:round;stroke-miterlimit:1.41421;">
    <g>
        <g id="Layer1">
            <g>
                <path d="M18.3228,164.032C17.6368,130.801 17.0938,177.55 174.06,177.55C329.914,177.55 331.137,130.824 329.798,164.032" />
            </g>
            <g>
                <path d="M20.1293,150.175C27.045,150.796 56.1708,132.046 173.896,132.046C290.786,132.046 320.696,150.787 327.781,150.168" />
            </g>
            <g>
                <path d="M329.798,164.032C328.219,203.22 277.886,357.625 277.886,357.625C277.886,357.625 278.17,385.346 174.06,385.281C70.2965,385.217 70.2353,357.625 70.2353,357.625C70.2353,357.625 19.5564,223.795 18.3228,164.032" />
            </g>
            <g>
                <path d="M174.449,145.524C174.449,135.668 182.11,107.2 174.449,101.677C161.471,92.3206 96.3488,103.172 96.5802,74.0206C96.6733,62.2955 145.376,62.4235 200.405,63.7428C261.801,65.2146 330.215,55.1285 330.187,46.3644C330.133,29.565 268.551,20.6424 200.405,18.7082C123.173,16.5162 37.2775,22.36 18.7111,18.7082" />
            </g>
        </g>
    </g>
</svg>
